<svg width="288" height="268" viewBox="0 0 288 268" fill="none" xmlns="http://www.w3.org/2000/svg">
<path d="M59.9746 0.583984C61.0778 0.419683 62.1449 0.501298 63.1553 0.783203L63.1768 0.789062L63.1982 0.793945C66.5674 1.4259 69.1055 4.374 69.1055 7.91797V8.85547C69.1055 8.9069 69.1013 8.96496 69.0947 9.04688C69.0888 9.12102 69.0801 9.21986 69.0801 9.31836V9.35547L69.0859 9.3916L72.5498 32.9766L72.6123 33.4033H279.472C284.383 33.4036 288.233 38.4821 287.331 44.1553L269.623 155.416C268.929 159.796 265.576 162.91 261.764 162.91H83.1738C82.6743 162.91 82.1721 162.852 81.6924 162.747L81.6045 162.728L81.5156 162.74C72.9343 163.952 66.3279 170.795 65.7168 178.594L65.6924 178.966C65.4459 183.656 67.4604 187.651 70.3271 190.711C73.1897 193.767 76.9261 195.922 80.21 196.952V196.95C81.0001 197.204 81.8261 197.325 82.6484 197.325H84.9873L85.0244 197.319C85.4272 197.258 85.8238 197.212 86.2246 197.212H279.946C284.122 197.212 287.5 200.59 287.5 204.766C287.5 208.941 284.122 212.319 279.946 212.319H243.818L243.578 213.258C252.504 218.151 258.562 227.628 258.562 238.53C258.562 254.424 245.668 267.318 229.774 267.318C213.881 267.318 200.987 254.424 200.987 238.53C200.987 227.628 207.034 218.151 215.972 213.258L215.731 212.319H135.809L135.568 213.258C144.494 218.151 150.553 227.628 150.553 238.53C150.553 254.424 137.659 267.318 121.766 267.318C105.872 267.318 92.9775 254.424 92.9775 238.53C92.9776 227.628 99.0244 218.151 107.962 213.258L107.722 212.319H86.2129C86.163 212.319 86.1119 212.315 86.0371 212.309C85.9682 212.303 85.8746 212.294 85.7744 212.294H85.7666L85.7588 212.295C83.3908 212.369 80.6658 212.221 77.6943 211.629H77.6924C74.4804 210.996 64.9139 208.923 57.7637 200.062C56.1141 198.019 50.7843 190.877 50.6592 180.431C50.6592 179.811 50.7402 164.596 62.7764 154.959L62.7773 154.96C66.2796 152.158 69.9173 150.534 73.5791 149.511L74.0029 149.393L73.9395 148.957L54.5059 16.5361L54.4434 16.1094H7.75293C3.75189 16.1091 0.5 12.868 0.5 8.85547V7.91797C0.5 3.91687 3.74044 0.664298 7.75293 0.664062H59.5928L59.6465 0.652344C59.8088 0.616285 59.8653 0.595505 59.9512 0.586914L59.9629 0.585938L59.9746 0.583984ZM121.766 220.522C111.823 220.522 103.758 228.588 103.758 238.53C103.758 248.473 111.823 256.538 121.766 256.538C131.708 256.538 139.772 248.473 139.772 238.53C139.772 228.588 131.708 220.523 121.766 220.522ZM229.763 220.522C219.82 220.522 211.755 228.588 211.755 238.53C211.755 248.473 219.82 256.538 229.763 256.538C239.705 256.538 247.77 248.473 247.77 238.53C247.769 228.588 239.705 220.523 229.763 220.522ZM75.1523 48.8838L75.1875 49.1318L88.5811 142.26L88.582 142.262L89.2695 146.901L89.334 147.34L89.7773 147.328C91.5851 147.279 93.296 147.328 94.9355 147.428L94.9512 147.429H253.72L253.79 147.013L270.485 49.1318L270.585 48.5479H75.4883L75.1523 48.8838Z" fill="#114362" stroke="#114362"/>
</svg>
